# Blender 4.4.3
# www.blender.org
o Pipe_21
v -3.531812 0.434706 -9.694429
v -3.531812 0.491881 -9.694429
v -3.531812 0.451483 -9.599277
v -3.531812 0.505211 -9.618833
v -3.531812 0.499793 -9.515603
v -3.531812 0.543592 -9.552355
v -3.531812 0.573808 -9.453497
v -3.531812 0.602396 -9.503013
v -3.531812 0.664600 -9.420451
v -3.531812 0.674529 -9.476758
v -3.531812 0.761220 -9.420451
v -3.531812 0.751292 -9.476758
v -3.531812 0.852012 -9.453497
v -3.531812 0.823425 -9.503013
v -3.531812 0.926027 -9.515603
v -3.531812 0.882228 -9.552355
v -3.531812 0.974337 -9.599277
v -3.531812 0.920610 -9.618833
v -3.531812 0.991115 -9.694429
v -3.531812 0.933939 -9.694429
v -3.531812 0.974337 -9.789581
v -3.531812 0.920610 -9.770026
v -3.531812 0.926027 -9.873256
v -3.531812 0.882228 -9.836504
v -3.531812 0.852012 -9.935362
v -3.531812 0.823425 -9.885846
v -3.531812 0.761220 -9.968408
v -3.531812 0.751291 -9.912101
v -3.531812 0.664600 -9.968408
v -3.531812 0.674529 -9.912101
v -3.531812 0.573808 -9.935362
v -3.531812 0.602396 -9.885846
v -3.531812 0.499793 -9.873256
v -3.531812 0.543592 -9.836504
v -3.531812 0.451483 -9.789581
v -3.531812 0.505211 -9.770026
v -10.014473 0.434707 -9.694428
v -10.190290 0.375855 -9.694428
v -10.190289 0.433185 -9.694428
v -10.014473 0.491883 -9.694428
v -10.014473 0.451485 -9.789580
v -10.190290 0.396182 -9.809709
v -10.190289 0.450055 -9.790101
v -10.014473 0.505212 -9.770025
v -10.014473 0.499795 -9.873256
v -10.190290 0.454711 -9.911084
v -10.190289 0.498629 -9.874233
v -10.014473 0.543594 -9.836504
v -10.014473 0.573809 -9.935361
v -10.190290 0.544383 -9.986328
v -10.190289 0.573048 -9.936679
v -10.014473 0.602397 -9.885846
v -10.014473 0.664602 -9.968407
v -10.190290 0.654382 -10.026364
v -10.190289 0.664338 -9.969906
v -10.014473 0.674530 -9.912100
v -10.014473 0.761221 -9.968407
v -10.190290 0.771441 -10.026364
v -10.190289 0.761486 -9.969906
v -10.014473 0.751293 -9.912100
v -10.014473 0.852014 -9.935361
v -10.190291 0.881440 -9.986328
v -10.190289 0.852775 -9.936679
v -10.014473 0.823426 -9.885846
v -10.014473 0.926029 -9.873256
v -10.190291 0.971112 -9.911084
v -10.190289 0.927195 -9.874233
v -10.014473 0.882230 -9.836504
v -10.014473 0.974339 -9.789580
v -10.190290 1.029641 -9.809709
v -10.190289 0.975769 -9.790101
v -10.014473 0.920611 -9.770025
v -10.014473 0.991116 -9.694428
v -10.190290 1.049968 -9.694428
v -10.190289 0.992638 -9.694428
v -10.014473 0.933941 -9.694428
v -10.014473 0.974338 -9.599277
v -10.190290 1.029641 -9.579148
v -10.190289 0.975768 -9.598757
v -10.014473 0.920611 -9.618833
v -10.014473 0.926029 -9.515602
v -10.190290 0.971112 -9.477773
v -10.190289 0.927194 -9.514624
v -10.014473 0.882230 -9.552354
v -10.014473 0.852014 -9.453497
v -10.190290 0.881440 -9.402529
v -10.190289 0.852775 -9.452179
v -10.014473 0.823426 -9.503012
v -10.014473 0.761221 -9.420451
v -10.190290 0.771441 -9.362493
v -10.190289 0.761486 -9.418952
v -10.014473 0.751293 -9.476758
v -10.014473 0.664602 -9.420451
v -10.190290 0.654382 -9.362493
v -10.190289 0.664338 -9.418952
v -10.014473 0.674530 -9.476758
v -10.014473 0.573809 -9.453497
v -10.190290 0.544383 -9.402529
v -10.190289 0.573048 -9.452179
v -10.014473 0.602397 -9.503012
v -10.014473 0.499795 -9.515602
v -10.190290 0.454711 -9.477773
v -10.190289 0.498629 -9.514624
v -10.014473 0.543593 -9.552354
v -10.014473 0.451485 -9.599277
v -10.190290 0.396182 -9.579148
v -10.190289 0.450055 -9.598757
v -10.014473 0.505212 -9.618833
v -10.735676 0.396182 -9.809709
v -10.735676 0.375855 -9.694428
v -10.735676 0.396182 -9.579148
v -10.735676 0.454711 -9.477773
v -10.735676 0.544383 -9.402529
v -10.735676 0.654382 -9.362493
v -10.735676 0.771441 -9.362493
v -10.735676 0.881440 -9.402529
v -10.735676 0.971112 -9.477773
v -10.735676 1.029641 -9.579148
v -10.735676 1.049968 -9.694428
v -10.735676 1.029641 -9.809709
v -10.735677 0.971112 -9.911084
v -10.735677 0.881440 -9.986328
v -10.735676 0.771441 -10.026364
v -10.735676 0.654382 -10.026364
v -10.735676 0.544383 -9.986328
v -10.735676 0.454711 -9.911084
v -10.735675 0.433185 -9.694428
v -10.735675 0.450055 -9.790100
v -10.735675 0.498629 -9.874233
v -10.735675 0.573048 -9.936679
v -10.735675 0.664338 -9.969905
v -10.735675 0.761486 -9.969905
v -10.735675 0.852775 -9.936679
v -10.735675 0.927194 -9.874233
v -10.735675 0.975768 -9.790100
v -10.735675 0.992638 -9.694428
v -10.735675 0.975768 -9.598756
v -10.735675 0.927194 -9.514624
v -10.735675 0.852775 -9.452178
v -10.735675 0.761486 -9.418951
v -10.735675 0.664338 -9.418952
v -10.735675 0.573048 -9.452178
v -10.735675 0.498629 -9.514624
v -10.735675 0.450055 -9.598756
vn 0.1611 -0.9869 -0.0000
vn 0.1536 -0.9881 -0.0000
vn 0.1536 -0.9285 -0.3380
vn 0.1611 -0.9274 -0.3376
vn -1.0000 -0.0000 -0.0000
vn -0.1532 0.9882 -0.0000
vn -0.1607 0.9870 -0.0000
vn -0.1607 0.9275 0.3376
vn -0.1532 0.9286 0.3380
vn 0.1536 -0.7570 -0.6352
vn 0.1611 -0.7560 -0.6344
vn -0.1607 0.7561 0.6344
vn -0.1532 0.7570 0.6352
vn 0.1536 -0.4941 -0.8558
vn 0.1611 -0.4935 -0.8547
vn -0.1607 0.4935 0.8548
vn -0.1532 0.4941 0.8558
vn 0.1536 -0.1716 -0.9731
vn 0.1611 -0.1714 -0.9719
vn -0.1607 0.1714 0.9720
vn -0.1532 0.1716 0.9732
vn 0.1536 0.1716 -0.9731
vn 0.1611 0.1714 -0.9719
vn -0.1607 -0.1714 0.9720
vn -0.1532 -0.1716 0.9732
vn 0.1536 0.4941 -0.8558
vn 0.1611 0.4935 -0.8547
vn -0.1607 -0.4935 0.8548
vn -0.1532 -0.4941 0.8558
vn 0.1536 0.7570 -0.6352
vn 0.1611 0.7560 -0.6344
vn -0.1607 -0.7561 0.6344
vn -0.1532 -0.7570 0.6352
vn 0.1536 0.9285 -0.3380
vn 0.1611 0.9274 -0.3376
vn -0.1607 -0.9275 0.3376
vn -0.1532 -0.9286 0.3380
vn 0.1536 0.9881 -0.0000
vn 0.1611 0.9869 -0.0000
vn -0.1607 -0.9870 -0.0000
vn -0.1532 -0.9882 -0.0000
vn 0.1536 0.9285 0.3380
vn 0.1611 0.9274 0.3376
vn -0.1607 -0.9275 -0.3376
vn -0.1532 -0.9286 -0.3380
vn 0.1536 0.7570 0.6352
vn 0.1611 0.7560 0.6344
vn -0.1607 -0.7561 -0.6344
vn -0.1532 -0.7570 -0.6352
vn 0.1536 0.4941 0.8558
vn 0.1611 0.4935 0.8547
vn -0.1607 -0.4935 -0.8548
vn -0.1532 -0.4941 -0.8558
vn 0.1536 0.1716 0.9731
vn 0.1611 0.1714 0.9719
vn -0.1607 -0.1714 -0.9720
vn -0.1532 -0.1716 -0.9732
vn 0.1536 -0.1716 0.9731
vn 0.1611 -0.1714 0.9719
vn -0.1607 0.1714 -0.9720
vn -0.1532 0.1716 -0.9732
vn 0.1536 -0.4941 0.8558
vn 0.1611 -0.4935 0.8547
vn -0.1607 0.4935 -0.8548
vn -0.1532 0.4941 -0.8558
vn 0.1536 -0.7570 0.6352
vn 0.1611 -0.7560 0.6344
vn -0.1607 0.7561 -0.6344
vn -0.1532 0.7570 -0.6352
vn 0.1536 -0.9285 0.3380
vn 0.1611 -0.9274 0.3376
vn -0.1607 0.9275 -0.3376
vn -0.1532 0.9286 -0.3380
vn -0.0000 0.9397 -0.3420
vn -0.0000 1.0000 -0.0000
vn -0.0000 0.9397 0.3420
vn -0.0000 0.7660 0.6428
vn -0.0000 0.5000 0.8660
vn -0.0000 0.1736 0.9848
vn -0.0000 -0.1736 0.9848
vn -0.0000 -0.5000 0.8660
vn -0.0000 -0.7660 0.6428
vn -0.0000 -0.9397 0.3420
vn -0.0000 -1.0000 -0.0000
vn -0.0000 -0.9397 -0.3420
vn -0.0000 -0.7660 -0.6428
vn -0.0000 -0.5000 -0.8660
vn -0.0000 -0.1736 -0.9848
vn -0.0000 0.1736 -0.9848
vn -0.0000 0.5000 -0.8660
vn -0.0000 0.7660 -0.6428
vt 0.298696 -5.010459
vt 0.298696 -5.152396
vt 0.428094 -5.152396
vt 0.405500 -5.010459
vt 0.298695 1.328930
vt 0.298695 1.264579
vt 0.406084 1.245644
vt 0.428093 1.306114
vt 0.701304 -5.152395
vt 0.701304 -5.010459
vt 0.616450 -5.010459
vt 0.593916 -5.152395
vt 0.541884 -5.152396
vt 0.499422 -5.010459
vt 0.500520 1.191121
vt 0.541884 1.240417
vt 0.541830 -5.010459
vt 0.499480 -5.152395
vt -0.189812 -5.010459
vt -0.240417 -5.152396
vt -0.139763 -5.152396
vt -0.106734 -5.010459
vt 0.570612 1.107588
vt 0.626342 1.139763
vt 1.191121 -5.152395
vt 1.140650 -5.010459
vt 1.074645 -5.010459
vt 1.107588 -5.152395
vt -0.016293 -5.152396
vt -0.004822 -5.010459
vt 0.607908 1.005119
vt 0.671281 1.016294
vt 0.993678 -5.010459
vt 1.005119 -5.152395
vt 0.115101 -5.152396
vt 0.103630 -5.010459
vt 0.607908 0.896074
vt 0.671281 0.884900
vt 0.907515 -5.010459
vt 0.896074 -5.152395
vt 0.238570 -5.152396
vt 0.205541 -5.010459
vt 0.570612 0.793605
vt 0.626342 0.761430
vt 0.826548 -5.010459
vt 0.793605 -5.152395
vt 0.339224 -5.152396
vt 0.288620 -5.010459
vt 0.500520 0.710072
vt 0.541884 0.660776
vt 0.760543 -5.010459
vt 0.710072 -5.152395
vt 0.500578 -5.010459
vt 0.458116 -5.152396
vt 0.571906 -5.152396
vt 0.594500 -5.010459
vt 0.406084 0.655550
vt 0.428093 0.595079
vt 0.500520 -5.152395
vt 0.458170 -5.010459
vt 0.383550 -5.010459
vt 0.406084 -5.152395
vt 0.701304 -5.152396
vt 0.701304 -5.010459
vt 0.298696 0.636614
vt 0.298696 0.572263
vt 0.298696 -5.010459
vt 0.298696 -5.152395
vt 0.830702 -5.152396
vt 0.808108 -5.010459
vt 0.191307 0.655550
vt 0.169298 0.595079
vt 0.213842 -5.010459
vt 0.191308 -5.152395
vt 0.944492 -5.152396
vt 0.902030 -5.010459
vt 0.096871 0.710072
vt 0.055507 0.660776
vt 0.139222 -5.010459
vt 0.096872 -5.152395
vt 0.711380 -5.010459
vt 0.660776 -5.152396
vt 0.761430 -5.152396
vt 0.794459 -5.010459
vt 0.026779 0.793605
vt -0.028951 0.761430
vt 0.289928 -5.152395
vt 0.239457 -5.010459
vt 0.173452 -5.010459
vt 0.206395 -5.152395
vt 0.884899 -5.152396
vt 0.896370 -5.010459
vt -0.010517 0.896074
vt -0.073890 0.884900
vt 0.092485 -5.010459
vt 0.103926 -5.152395
vt 1.016293 -5.152396
vt 1.004822 -5.010459
vt -0.010517 1.005119
vt -0.073890 1.016294
vt 0.006322 -5.010459
vt -0.005119 -5.152395
vt 1.139763 -5.152396
vt 1.106733 -5.010459
vt 0.026779 1.107588
vt -0.028951 1.139763
vt -0.074645 -5.010459
vt -0.107588 -5.152395
vt 1.240417 -5.152396
vt 1.189812 -5.010459
vt 0.096871 1.191121
vt 0.055507 1.240417
vt -0.140650 -5.010459
vt -0.191121 -5.152395
vt 0.097970 -5.010459
vt 0.055508 -5.152396
vt 0.169298 -5.152396
vt 0.191892 -5.010459
vt 0.191307 1.245644
vt 0.169298 1.306114
vt 0.903128 -5.152395
vt 0.860778 -5.010459
vt 0.786158 -5.010459
vt 0.808692 -5.152395
vt 0.786158 0.222959
vt 0.701304 0.222959
vt 0.616450 0.222959
vt 0.541830 0.222959
vt 1.140649 0.222959
vt 1.074645 0.222959
vt 0.993678 0.222959
vt 0.907514 0.222959
vt 0.826548 0.222959
vt 0.760543 0.222959
vt 0.458170 0.222959
vt 0.383550 0.222959
vt 0.298696 0.222959
vt 0.213842 0.222959
vt 0.139223 0.222959
vt 0.239457 0.222959
vt 0.173453 0.222959
vt 0.092486 0.222959
vt 0.006323 0.222959
vt -0.074644 0.222959
vt -0.140649 0.222959
vt 0.860778 0.222959
vt 1.004822 0.222959
vt 0.896370 0.222959
vt 0.794459 0.222959
vt 0.711380 0.222959
vt 0.902030 0.222959
vt 0.808108 0.222959
vt 0.701304 0.222959
vt 0.594500 0.222959
vt 0.500578 0.222959
vt 0.288620 0.222959
vt 0.205541 0.222959
vt 0.103630 0.222959
vt -0.004822 0.222959
vt -0.106733 0.222959
vt -0.189812 0.222959
vt 0.499422 0.222959
vt 0.405500 0.222959
vt 0.298696 0.222959
vt 0.191892 0.222959
vt 0.097970 0.222959
vt 1.189812 0.222959
vt 1.106733 0.222959
vt 0.298695 -5.592682
vt 0.428093 -5.592682
vt 0.169298 -5.592682
vt 0.055507 -5.592682
vt 1.139763 -5.592682
vt 1.240417 -5.592682
vt 1.016294 -5.592682
vt 0.884900 -5.592682
vt 0.761430 -5.592682
vt 0.660776 -5.592682
vt 0.830702 -5.592682
vt 0.944493 -5.592682
vt 0.701304 -5.592682
vt 0.571907 -5.592682
vt 0.458116 -5.592683
vt 0.238570 -5.592683
vt 0.339224 -5.592683
vt 0.115100 -5.592682
vt -0.016294 -5.592682
vt -0.139763 -5.592682
vt -0.240417 -5.592682
vt 0.541884 -5.592682
vt 0.593916 -5.592682
vt 0.701305 -5.592682
vt 0.499480 -5.592682
vt 1.107588 -5.592682
vt 1.191121 -5.592682
vt 1.005119 -5.592682
vt 0.896074 -5.592682
vt 0.793605 -5.592682
vt 0.710072 -5.592682
vt 0.406084 -5.592682
vt 0.500520 -5.592682
vt 0.298696 -5.592682
vt 0.191307 -5.592682
vt 0.096871 -5.592682
vt 0.206395 -5.592682
vt 0.289928 -5.592682
vt 0.103926 -5.592682
vt -0.005119 -5.592682
vt -0.107588 -5.592682
vt -0.191121 -5.592682
vt 0.808693 -5.592682
vt 0.903129 -5.592682
s 1
f 37/1/1 38/2/2 42/3/3 41/4/4
f 110/5/5 127/6/5 128/7/5 109/8/5
f 39/9/6 40/10/7 44/11/8 43/12/9
f 41/4/4 42/3/3 46/13/10 45/14/11
f 109/8/5 128/7/5 129/15/5 126/16/5
f 43/12/9 44/11/8 48/17/12 47/18/13
f 45/19/11 46/20/10 50/21/14 49/22/15
f 126/16/5 129/15/5 130/23/5 125/24/5
f 47/25/13 48/26/12 52/27/16 51/28/17
f 49/22/15 50/21/14 54/29/18 53/30/19
f 125/24/5 130/23/5 131/31/5 124/32/5
f 51/28/17 52/27/16 56/33/20 55/34/21
f 53/30/19 54/29/18 58/35/22 57/36/23
f 124/32/5 131/31/5 132/37/5 123/38/5
f 55/34/21 56/33/20 60/39/24 59/40/25
f 57/36/23 58/35/22 62/41/26 61/42/27
f 123/38/5 132/37/5 133/43/5 122/44/5
f 59/40/25 60/39/24 64/45/28 63/46/29
f 61/42/27 62/41/26 66/47/30 65/48/31
f 122/44/5 133/43/5 134/49/5 121/50/5
f 63/46/29 64/45/28 68/51/32 67/52/33
f 65/53/31 66/54/30 70/55/34 69/56/35
f 121/50/5 134/49/5 135/57/5 120/58/5
f 67/59/33 68/60/32 72/61/36 71/62/37
f 69/56/35 70/55/34 74/63/38 73/64/39
f 120/58/5 135/57/5 136/65/5 119/66/5
f 71/62/37 72/61/36 76/67/40 75/68/41
f 73/64/39 74/63/38 78/69/42 77/70/43
f 119/66/5 136/65/5 137/71/5 118/72/5
f 75/68/41 76/67/40 80/73/44 79/74/45
f 77/70/43 78/69/42 82/75/46 81/76/47
f 118/72/5 137/71/5 138/77/5 117/78/5
f 79/74/45 80/73/44 84/79/48 83/80/49
f 81/81/47 82/82/46 86/83/50 85/84/51
f 117/78/5 138/77/5 139/85/5 116/86/5
f 83/87/49 84/88/48 88/89/52 87/90/53
f 85/84/51 86/83/50 90/91/54 89/92/55
f 116/86/5 139/85/5 140/93/5 115/94/5
f 87/90/53 88/89/52 92/95/56 91/96/57
f 89/92/55 90/91/54 94/97/58 93/98/59
f 115/94/5 140/93/5 141/99/5 114/100/5
f 91/96/57 92/95/56 96/101/60 95/102/61
f 93/98/59 94/97/58 98/103/62 97/104/63
f 114/100/5 141/99/5 142/105/5 113/106/5
f 95/102/61 96/101/60 100/107/64 99/108/65
f 97/104/63 98/103/62 102/109/66 101/110/67
f 113/106/5 142/105/5 143/111/5 112/112/5
f 99/108/65 100/107/64 104/113/68 103/114/69
f 101/115/67 102/116/66 106/117/70 105/118/71
f 112/112/5 143/111/5 144/119/5 111/120/5
f 103/121/69 104/122/68 108/123/72 107/124/73
f 105/118/71 106/117/70 38/2/2 37/1/1
f 111/120/5 144/119/5 127/6/5 110/5/5
f 107/124/73 108/123/72 40/10/7 39/9/6
f 4/125/74 2/126/75 40/10/7 108/123/72
f 2/126/75 36/127/76 44/11/8 40/10/7
f 36/127/76 34/128/77 48/17/12 44/11/8
f 34/129/77 32/130/78 52/27/16 48/26/12
f 32/130/78 30/131/79 56/33/20 52/27/16
f 30/131/79 28/132/80 60/39/24 56/33/20
f 28/132/80 26/133/81 64/45/28 60/39/24
f 26/133/81 24/134/82 68/51/32 64/45/28
f 24/135/82 22/136/83 72/61/36 68/60/32
f 22/136/83 20/137/84 76/67/40 72/61/36
f 20/137/84 18/138/85 80/73/44 76/67/40
f 18/138/85 16/139/86 84/79/48 80/73/44
f 16/140/86 14/141/87 88/89/52 84/88/48
f 14/141/87 12/142/88 92/95/56 88/89/52
f 12/142/88 10/143/89 96/101/60 92/95/56
f 10/143/89 8/144/90 100/107/64 96/101/60
f 8/144/90 6/145/91 104/113/68 100/107/64
f 6/146/91 4/125/74 108/123/72 104/122/68
f 9/147/80 11/148/79 89/92/55 93/98/59
f 11/148/79 13/149/78 85/84/51 89/92/55
f 13/149/78 15/150/77 81/81/47 85/84/51
f 15/151/77 17/152/76 77/70/43 81/76/47
f 17/152/76 19/153/75 73/64/39 77/70/43
f 19/153/75 21/154/74 69/56/35 73/64/39
f 21/154/74 23/155/91 65/53/31 69/56/35
f 23/156/91 25/157/90 61/42/27 65/48/31
f 25/157/90 27/158/89 57/36/23 61/42/27
f 27/158/89 29/159/88 53/30/19 57/36/23
f 29/159/88 31/160/87 49/22/15 53/30/19
f 31/160/87 33/161/86 45/19/11 49/22/15
f 33/162/86 35/163/85 41/4/4 45/14/11
f 35/163/85 1/164/84 37/1/1 41/4/4
f 1/164/84 3/165/83 105/118/71 37/1/1
f 3/165/83 5/166/82 101/115/67 105/118/71
f 5/167/82 7/168/81 97/104/63 101/110/67
f 7/168/81 9/147/80 93/98/59 97/104/63
f 42/3/3 38/2/2 110/169/84 109/170/85
f 38/2/2 106/117/70 111/171/83 110/169/84
f 106/117/70 102/116/66 112/172/82 111/171/83
f 102/109/66 98/103/62 113/173/81 112/174/82
f 98/103/62 94/97/58 114/175/80 113/173/81
f 94/97/58 90/91/54 115/176/79 114/175/80
f 90/91/54 86/83/50 116/177/78 115/176/79
f 86/83/50 82/82/46 117/178/77 116/177/78
f 82/75/46 78/69/42 118/179/76 117/180/77
f 78/69/42 74/63/38 119/181/75 118/179/76
f 74/63/38 70/55/34 120/182/74 119/181/75
f 70/55/34 66/54/30 121/183/91 120/182/74
f 66/47/30 62/41/26 122/184/90 121/185/91
f 62/41/26 58/35/22 123/186/89 122/184/90
f 58/35/22 54/29/18 124/187/88 123/186/89
f 54/29/18 50/21/14 125/188/87 124/187/88
f 50/21/14 46/20/10 126/189/86 125/188/87
f 46/13/10 42/3/3 109/170/85 126/190/86
f 39/9/6 43/12/9 128/191/76 127/192/75
f 43/12/9 47/18/13 129/193/77 128/191/76
f 47/25/13 51/28/17 130/194/78 129/195/77
f 51/28/17 55/34/21 131/196/79 130/194/78
f 55/34/21 59/40/25 132/197/80 131/196/79
f 59/40/25 63/46/29 133/198/81 132/197/80
f 63/46/29 67/52/33 134/199/82 133/198/81
f 67/59/33 71/62/37 135/200/83 134/201/82
f 71/62/37 75/68/41 136/202/84 135/200/83
f 75/68/41 79/74/45 137/203/85 136/202/84
f 79/74/45 83/80/49 138/204/86 137/203/85
f 83/87/49 87/90/53 139/205/87 138/206/86
f 87/90/53 91/96/57 140/207/88 139/205/87
f 91/96/57 95/102/61 141/208/89 140/207/88
f 95/102/61 99/108/65 142/209/90 141/208/89
f 99/108/65 103/114/69 143/210/91 142/209/90
f 103/121/69 107/124/73 144/211/74 143/212/91
f 107/124/73 39/9/6 127/192/75 144/211/74
