{
	"asset":{
		"generator":"Khronos glTF Blender I/O v4.4.56",
		"version":"2.0"
	},
	"scene":0,
	"scenes":[
		{
			"name":"Scene",
			"nodes":[
				0
			]
		}
	],
	"nodes":[
		{
			"mesh":0,
			"name":"piperacks_valve only_decimate.002",
			"rotation":[
				0.7071068286895752,
				0,
				0,
				0.7071068286895752
			]
		}
	],
	"meshes":[
		{
			"name":"piperacks_valve only_decimate.004",
			"primitives":[
				{
					"attributes":{
						"POSITION":0,
						"NORMAL":1
					},
					"indices":2
				}
			]
		}
	],
	"accessors":[
		{
			"bufferView":0,
			"componentType":5126,
			"count":9629,
			"max":[
				-2.8947670459747314,
				-0.7920830249786377,
				-0.451321005821228
			],
			"min":[
				-3.2035720348358154,
				-1.2675989866256714,
				-0.7586309909820557
			],
			"type":"VEC3"
		},
		{
			"bufferView":1,
			"componentType":5126,
			"count":9629,
			"type":"VEC3"
		},
		{
			"bufferView":2,
			"componentType":5123,
			"count":10632,
			"type":"SCALAR"
		}
	],
	"bufferViews":[
		{
			"buffer":0,
			"byteLength":115548,
			"byteOffset":0,
			"target":34962
		},
		{
			"buffer":0,
			"byteLength":115548,
			"byteOffset":115548,
			"target":34962
		},
		{
			"buffer":0,
			"byteLength":21264,
			"byteOffset":231096,
			"target":34963
		}
	],
	"buffers":[
		{
			"byteLength":252360,
			"uri":"piperacks_valve_only_decimate.bin"
		}
	]
}
