{
	"asset":{
		"generator":"Khronos glTF Blender I/O v4.4.56",
		"version":"2.0"
	},
	"scene":0,
	"scenes":[
		{
			"name":"Scene",
			"nodes":[
				0
			]
		}
	],
	"nodes":[
		{
			"mesh":0,
			"name":"wellhead-valve",
			"rotation":[
				0.70710688829422,
				0,
				0,
				0.7071066498756409
			]
		}
	],
	"meshes":[
		{
			"name":"wellhead-valve",
			"primitives":[
				{
					"attributes":{
						"POSITION":0,
						"NORMAL":1,
						"TEXCOORD_0":2
					},
					"indices":3
				}
			]
		}
	],
	"accessors":[
		{
			"bufferView":0,
			"componentType":5126,
			"count":4912,
			"max":[
				-2.894742012023926,
				-0.7920830249786377,
				-0.45113301277160645
			],
			"min":[
				-3.2035720348358154,
				-1.2675989866256714,
				-0.7586309909820557
			],
			"type":"VEC3"
		},
		{
			"bufferView":1,
			"componentType":5126,
			"count":4912,
			"type":"VEC3"
		},
		{
			"bufferView":2,
			"componentType":5126,
			"count":4912,
			"type":"VEC2"
		},
		{
			"bufferView":3,
			"componentType":5123,
			"count":21264,
			"type":"SCALAR"
		}
	],
	"bufferViews":[
		{
			"buffer":0,
			"byteLength":58944,
			"byteOffset":0,
			"target":34962
		},
		{
			"buffer":0,
			"byteLength":58944,
			"byteOffset":58944,
			"target":34962
		},
		{
			"buffer":0,
			"byteLength":39296,
			"byteOffset":117888,
			"target":34962
		},
		{
			"buffer":0,
			"byteLength":42528,
			"byteOffset":157184,
			"target":34963
		}
	],
	"buffers":[
		{
			"byteLength":199712,
			"uri":"piperacks_valve_only.bin"
		}
	]
}
