{
	"asset":{
		"generator":"Khronos glTF Blender I/O v4.4.56",
		"version":"2.0"
	},
	"scene":0,
	"scenes":[
		{
			"name":"Scene",
			"nodes":[
				0,
				1,
				2
			]
		}
	],
	"nodes":[
		{
			"mesh":0,
			"name":"Cube;hires",
			"translation":[
				1.2455791234970093,
				0,
				0
			]
		},
		{
			"mesh":1,
			"name":"Cube;hires.001",
			"translation":[
				0.6848936676979065,
				0,
				0
			]
		},
		{
			"mesh":2,
			"name":"Cube;hires.002",
			"translation":[
				0.1186065673828125,
				0,
				0
			]
		}
	],
	"materials":[
		{
			"doubleSided":true,
			"name":"Material.001",
			"pbrMetallicRoughness":{
				"baseColorFactor":[
					0.5436431765556335,
					0.2994440793991089,
					0.20704416930675507,
					1
				],
				"metallicFactor":0,
				"roughnessFactor":0.5
			}
		},
		{
			"doubleSided":true,
			"name":"Material.004",
			"pbrMetallicRoughness":{
				"baseColorFactor":[
					0.5436431765556335,
					0.2994440793991089,
					0.20704416930675507,
					1
				],
				"metallicFactor":0,
				"roughnessFactor":0.5
			}
		},
		{
			"doubleSided":true,
			"name":"Material.005",
			"pbrMetallicRoughness":{
				"baseColorFactor":[
					0.5436431765556335,
					0.2994440793991089,
					0.20704416930675507,
					1
				],
				"metallicFactor":0,
				"roughnessFactor":0.5
			}
		}
	],
	"meshes":[
		{
			"name":"Cube;hires",
			"primitives":[
				{
					"attributes":{
						"POSITION":0,
						"NORMAL":1,
						"TEXCOORD_0":2
					},
					"indices":3,
					"material":0
				}
			]
		},
		{
			"name":"Cube;hires.001",
			"primitives":[
				{
					"attributes":{
						"POSITION":4,
						"NORMAL":5,
						"TEXCOORD_0":6
					},
					"indices":3,
					"material":1
				}
			]
		},
		{
			"name":"Cube;hires.002",
			"primitives":[
				{
					"attributes":{
						"POSITION":7,
						"NORMAL":8,
						"TEXCOORD_0":9
					},
					"indices":3,
					"material":2
				}
			]
		}
	],
	"accessors":[
		{
			"bufferView":0,
			"componentType":5126,
			"count":822,
			"max":[
				0.18092739582061768,
				0.7299892902374268,
				0.7615057229995728
			],
			"min":[
				-0.22483189404010773,
				-0.01601026952266693,
				-0.19682776927947998
			],
			"type":"VEC3"
		},
		{
			"bufferView":1,
			"componentType":5126,
			"count":822,
			"type":"VEC3"
		},
		{
			"bufferView":2,
			"componentType":5126,
			"count":822,
			"type":"VEC2"
		},
		{
			"bufferView":3,
			"componentType":5123,
			"count":4758,
			"type":"SCALAR"
		},
		{
			"bufferView":4,
			"componentType":5126,
			"count":822,
			"max":[
				0.18092739582061768,
				0.7299892902374268,
				0.7615057229995728
			],
			"min":[
				-0.22483189404010773,
				-0.01601026952266693,
				-0.19682776927947998
			],
			"type":"VEC3"
		},
		{
			"bufferView":5,
			"componentType":5126,
			"count":822,
			"type":"VEC3"
		},
		{
			"bufferView":6,
			"componentType":5126,
			"count":822,
			"type":"VEC2"
		},
		{
			"bufferView":7,
			"componentType":5126,
			"count":822,
			"max":[
				0.18092739582061768,
				0.7299892902374268,
				0.7615057229995728
			],
			"min":[
				-0.22483189404010773,
				-0.01601026952266693,
				-0.19682776927947998
			],
			"type":"VEC3"
		},
		{
			"bufferView":8,
			"componentType":5126,
			"count":822,
			"type":"VEC3"
		},
		{
			"bufferView":9,
			"componentType":5126,
			"count":822,
			"type":"VEC2"
		}
	],
	"bufferViews":[
		{
			"buffer":0,
			"byteLength":9864,
			"byteOffset":0,
			"target":34962
		},
		{
			"buffer":0,
			"byteLength":9864,
			"byteOffset":9864,
			"target":34962
		},
		{
			"buffer":0,
			"byteLength":6576,
			"byteOffset":19728,
			"target":34962
		},
		{
			"buffer":0,
			"byteLength":9516,
			"byteOffset":26304,
			"target":34963
		},
		{
			"buffer":0,
			"byteLength":9864,
			"byteOffset":35820,
			"target":34962
		},
		{
			"buffer":0,
			"byteLength":9864,
			"byteOffset":45684,
			"target":34962
		},
		{
			"buffer":0,
			"byteLength":6576,
			"byteOffset":55548,
			"target":34962
		},
		{
			"buffer":0,
			"byteLength":9864,
			"byteOffset":62124,
			"target":34962
		},
		{
			"buffer":0,
			"byteLength":9864,
			"byteOffset":71988,
			"target":34962
		},
		{
			"buffer":0,
			"byteLength":6576,
			"byteOffset":81852,
			"target":34962
		}
	],
	"buffers":[
		{
			"byteLength":88428,
			"uri":"human-foot-instaced.bin"
		}
	]
}
